<?xml version="1.0" encoding="UTF-8"?>
<svg id="Layer_1" xmlns="http://www.w3.org/2000/svg" version="1.1" viewBox="0 0 250 250">
  <!-- Generator: Adobe Illustrator 30.1.0, SVG Export Plug-In . SVG Version: 2.1.1 Build 136)  -->
  <defs>
    <style>
      .st0 {
        fill: #00464b;
      }

      .st1 {
        fill: #fff;
      }
    </style>
  </defs>
  <rect class="st1" x="-11.39" y="-8.75" width="274.77" height="267.55"/>
  <g>
    <path class="st0" d="M138.35,84.94v-26.71h-19.21c-4.8,0-9.4,1.91-12.79,5.3l-16.11,16.11c-3.39,3.39-7.99,5.3-12.79,5.3h-19.21v26.71h19.21c4.8,0,9.4-1.91,12.79-5.3l16.11-16.11c3.39-3.39,7.99-5.3,12.79-5.3h19.21Z"/>
    <path class="st0" d="M191.76,111.65v-26.71h-19.21c-4.8,0-9.4,1.91-12.79,5.3l-16.11,16.11c-3.39,3.39-7.99,5.3-12.79,5.3h-38.42c-4.8,0-9.4,1.91-12.79,5.3l-21.41,21.41v26.71l21.41-21.41c3.39-3.39,7.99-5.3,12.79-5.3h38.42c4.8,0,9.4-1.91,12.79-5.3l16.11-16.11c3.39-3.39,7.99-5.3,12.79-5.3h19.21Z"/>
    <path class="st0" d="M111.65,191.76l21.41-21.41c3.39-3.39,7.99-5.3,12.79-5.3h45.92v-26.71h-45.92c-4.8,0-9.4,1.91-12.79,5.3l-21.41,21.41v26.71Z"/>
  </g>
</svg>