<?xml version="1.0" encoding="UTF-8"?>
<svg id="Layer_1" xmlns="http://www.w3.org/2000/svg" version="1.1" viewBox="0 0 900 250">
  <!-- Generator: Adobe Illustrator 30.1.0, SVG Export Plug-In . SVG Version: 2.1.1 Build 136)  -->
  <defs>
    <style>
      .st0 {
        fill: #00464b;
      }

      .st1 {
        fill: #fff;
      }

      .st2 {
        font-family: Inter18pt-Regular, 'Inter 18pt';
        font-size: 151.61px;
        letter-spacing: -.04em;
      }
    </style>
  </defs>
  <rect class="st1" x="-8.42" y="-8.75" width="918.84" height="267.55"/>
  <g>
    <path class="st0" d="M154.55,84.96v-26.71h-19.21c-4.8,0-9.4,1.91-12.79,5.3l-16.11,16.11c-3.39,3.39-7.99,5.3-12.79,5.3h-19.21v26.71h19.21c4.8,0,9.4-1.91,12.79-5.3l16.11-16.11c3.39-3.39,7.99-5.3,12.79-5.3h19.21Z"/>
    <path class="st0" d="M207.96,111.66v-26.71h-19.21c-4.8,0-9.4,1.91-12.79,5.3l-16.11,16.11c-3.39,3.39-7.99,5.3-12.79,5.3h-38.42c-4.8,0-9.4,1.91-12.79,5.3l-21.41,21.41v26.71l21.41-21.41c3.39-3.39,7.99-5.3,12.79-5.3h38.42c4.8,0,9.4-1.91,12.79-5.3l16.11-16.11c3.39-3.39,7.99-5.3,12.79-5.3h19.21Z"/>
    <path class="st0" d="M127.84,191.78l21.41-21.41c3.39-3.39,7.99-5.3,12.79-5.3h45.92v-26.71h-45.92c-4.8,0-9.4,1.91-12.79,5.3l-21.41,21.41v26.71Z"/>
  </g>
  <text class="st2" transform="translate(228.15 174.97)"><tspan x="0" y="0">Transient</tspan></text>
</svg>